<?xml version="1.0" encoding="UTF-8"?>
<svg version="1.1" xmlns="http://www.w3.org/2000/svg" width="64" height="64">
<path d="M0 0 C21.12 0 42.24 0 64 0 C64 21.12 64 42.24 64 64 C42.88 64 21.76 64 0 64 C0 42.88 0 21.76 0 0 Z " fill="#F593C7" transform="translate(0,0)"/>
<path d="M0 0 C21.12 0 42.24 0 64 0 C64 21.12 64 42.24 64 64 C62.35 64 60.7 64 59 64 C58.86207031 63.40832031 58.72414062 62.81664062 58.58203125 62.20703125 C57.15710703 57.77313 56.04192415 55.56410726 51.83984375 53.2890625 C48.5849914 52.06362299 45.3418973 50.96103694 42 50 C42 49.34 42 48.68 42 48 C43.32 48.33 44.64 48.66 46 49 C46 48.34 46 47.68 46 47 C48.31 47 50.62 47 53 47 C53.10540926 44.78918149 53.10540926 44.78918149 52 42 C52.05078125 39.80859375 52.05078125 39.80859375 52.3125 37.4375 C52.39113281 36.65246094 52.46976563 35.86742187 52.55078125 35.05859375 C53 33 53 33 55 31 C54.505 30.01 54.505 30.01 54 29 C53.89702217 27.06344474 53.8169147 25.12563651 53.75 23.1875 C53.4269802 19.15216315 53.26530192 17.3858937 50.9375 14 C49.4834375 13.01 49.4834375 13.01 48 12 C47.43152344 11.61199219 46.86304688 11.22398438 46.27734375 10.82421875 C40.76200768 7.52860726 35.29913341 6.98223609 29 8 C24.67609072 9.43649073 21.93543187 11.36571351 19.65625 15.34765625 C17.77525382 19.80158649 16.55947984 24.18847341 16 29 C14.35294118 37.64705882 14.35294118 37.64705882 13 39 C13.99 39.66 14.98 40.32 16 41 C16.6875 44.625 16.6875 44.625 17 48 C17.66 48 18.32 48 19 48 C19.33 47.01 19.66 46.02 20 45 C20.99 45.99 21.98 46.98 23 48 C18.9878153 50.60365177 15.09321306 52.99501113 10.6875 54.875 C7.58295114 56.35103305 6.35524578 57.58139718 5 60.75 C4.67 61.8225 4.34 62.895 4 64 C2.68 64 1.36 64 0 64 C0 42.88 0 21.76 0 0 Z " fill="#FEFEFE" transform="translate(0,0)"/>
<path d="M0 0 C8.4989481 4.44646953 8.4989481 4.44646953 10.94921875 8.79296875 C11.42578125 11.703125 11.42578125 11.703125 11.57421875 14.85546875 C11.74473486 18.13993377 11.90586485 20.66290706 12.94921875 23.79296875 C12.28921875 24.45296875 11.62921875 25.11296875 10.94921875 25.79296875 C10.41130016 28.15413644 10.41130016 28.15413644 10.19921875 30.79296875 C10.10125 31.67984375 10.00328125 32.56671875 9.90234375 33.48046875 C9.68618556 35.99168973 9.68618556 35.99168973 11.94921875 37.79296875 C11.28921875 38.45296875 10.62921875 39.11296875 9.94921875 39.79296875 C6.32421875 39.41796875 6.32421875 39.41796875 2.94921875 38.79296875 C2.94921875 39.45296875 2.94921875 40.11296875 2.94921875 40.79296875 C1.62921875 40.46296875 0.30921875 40.13296875 -1.05078125 39.79296875 C-1.05078125 40.45296875 -1.05078125 41.11296875 -1.05078125 41.79296875 C0.92921875 42.12296875 2.90921875 42.45296875 4.94921875 42.79296875 C4.94921875 43.12296875 4.94921875 43.45296875 4.94921875 43.79296875 C1.64921875 43.79296875 -1.65078125 43.79296875 -5.05078125 43.79296875 C-5.05078125 42.47296875 -5.05078125 41.15296875 -5.05078125 39.79296875 C-5.99953125 39.83421875 -6.94828125 39.87546875 -7.92578125 39.91796875 C-11.05078125 39.79296875 -11.05078125 39.79296875 -13.05078125 37.79296875 C-11.48828125 36.73046875 -11.48828125 36.73046875 -9.05078125 35.79296875 C-7.31828125 36.13328125 -7.31828125 36.13328125 -5.55078125 36.48046875 C-3.81828125 36.63515625 -3.81828125 36.63515625 -2.05078125 36.79296875 C0.38588615 34.68473946 0.38588615 34.68473946 1.94921875 31.79296875 C2.36171875 31.17421875 2.77421875 30.55546875 3.19921875 29.91796875 C4.27907667 26.85837132 4.07279133 24.00585579 3.94921875 20.79296875 C3.28921875 20.79296875 2.62921875 20.79296875 1.94921875 20.79296875 C0.95921875 20.79296875 -0.03078125 20.79296875 -1.05078125 20.79296875 C-0.72078125 19.47296875 -0.39078125 18.15296875 -0.05078125 16.79296875 C1.26921875 17.12296875 2.58921875 17.45296875 3.94921875 17.79296875 C4.44421875 16.30796875 4.44421875 16.30796875 4.94921875 14.79296875 C3.29921875 15.12296875 1.64921875 15.45296875 -0.05078125 15.79296875 C0.27921875 15.13296875 0.60921875 14.47296875 0.94921875 13.79296875 C2.26921875 13.79296875 3.58921875 13.79296875 4.94921875 13.79296875 C4.94921875 13.13296875 4.94921875 12.47296875 4.94921875 11.79296875 C0.98921875 11.79296875 -2.97078125 11.79296875 -7.05078125 11.79296875 C-7.05078125 12.78296875 -7.05078125 13.77296875 -7.05078125 14.79296875 C-7.05078125 15.78296875 -7.05078125 16.77296875 -7.05078125 17.79296875 C-6.72078125 18.45296875 -6.39078125 19.11296875 -6.05078125 19.79296875 C-7.04078125 19.79296875 -8.03078125 19.79296875 -9.05078125 19.79296875 C-8.72078125 20.45296875 -8.39078125 21.11296875 -8.05078125 21.79296875 C-11.02078125 22.45296875 -13.99078125 23.11296875 -17.05078125 23.79296875 C-17.01597656 24.6128125 -16.98117188 25.43265625 -16.9453125 26.27734375 C-16.91824219 27.355 -16.89117187 28.43265625 -16.86328125 29.54296875 C-16.82847656 30.6103125 -16.79367188 31.67765625 -16.7578125 32.77734375 C-17.07995339 36.0932473 -17.82227039 37.38313548 -20.05078125 39.79296875 C-21.04078125 39.13296875 -22.03078125 38.47296875 -23.05078125 37.79296875 C-23.05078125 38.78296875 -23.05078125 39.77296875 -23.05078125 40.79296875 C-24.37078125 40.46296875 -25.69078125 40.13296875 -27.05078125 39.79296875 C-27.15390625 38.69984375 -27.25703125 37.60671875 -27.36328125 36.48046875 C-28.02385852 32.93737246 -28.25349045 31.86053152 -31.05078125 29.79296875 C-30.39078125 29.46296875 -29.73078125 29.13296875 -29.05078125 28.79296875 C-29.09203125 27.74109375 -29.13328125 26.68921875 -29.17578125 25.60546875 C-29.05291022 21.85790227 -28.53265089 20.14667373 -27.05078125 16.79296875 C-26.58430588 15.12856256 -26.12683477 13.46162029 -25.67578125 11.79296875 C-24.06796739 6.409592 -22.13305657 3.26579763 -17.48828125 -0.01953125 C-11.45857998 -2.10251896 -5.99573502 -2.37219222 0 0 Z " fill="#DCA06D" transform="translate(43.05078125,8.20703125)"/>
<path d="M0 0 C8.72137351 -0.9109365 14.89965709 0.77069339 22 6 C25.09578869 9.18443462 25.41912795 11.69042781 25.625 16.0625 C25.79551611 19.34696502 25.9566461 21.86993831 27 25 C26.34 25.66 25.68 26.32 25 27 C24.46208141 29.36116769 24.46208141 29.36116769 24.25 32 C24.15203125 32.886875 24.0540625 33.77375 23.953125 34.6875 C23.73696681 37.19872098 23.73696681 37.19872098 26 39 C25.34 39.66 24.68 40.32 24 41 C20.375 40.625 20.375 40.625 17 40 C17 40.66 17 41.32 17 42 C15.68 41.67 14.36 41.34 13 41 C13 41.66 13 42.32 13 43 C14.98 43.33 16.96 43.66 19 44 C19 44.33 19 44.66 19 45 C15.7 45 12.4 45 9 45 C9 43.68 9 42.36 9 41 C8.05125 41.04125 7.1025 41.0825 6.125 41.125 C3 41 3 41 1 39 C2.5625 37.9375 2.5625 37.9375 5 37 C6.7325 37.3403125 6.7325 37.3403125 8.5 37.6875 C10.2325 37.8421875 10.2325 37.8421875 12 38 C14.4366674 35.89177071 14.4366674 35.89177071 16 33 C16.4125 32.38125 16.825 31.7625 17.25 31.125 C18.32985792 28.06540257 18.12357258 25.21288704 18 22 C17.34 22 16.68 22 16 22 C15.01 22 14.02 22 13 22 C13.33 20.68 13.66 19.36 14 18 C15.32 18.33 16.64 18.66 18 19 C18.33 18.01 18.66 17.02 19 16 C17.35 16.33 15.7 16.66 14 17 C14.33 16.34 14.66 15.68 15 15 C16.32 15 17.64 15 19 15 C19 14.34 19 13.68 19 13 C15.04 13 11.08 13 7 13 C7 13.99 7 14.98 7 16 C7 16.99 7 17.98 7 19 C7.33 19.66 7.66 20.32 8 21 C7.01 21 6.02 21 5 21 C5.33 21.66 5.66 22.32 6 23 C3.03 23.66 0.06 24.32 -3 25 C-2.60167969 24.43152344 -2.20335938 23.86304687 -1.79296875 23.27734375 C0.69977034 19.64437365 3.08325498 16.15595667 4.75 12.0625 C6 9 6 9 8 7 C8.99 7 9.98 7 11 7 C11 7.66 11 8.32 11 9 C11.66 9 12.32 9 13 9 C12.67 7.68 12.34 6.36 12 5 C9.69 4.67 7.38 4.34 5 4 C6.32 3.67 7.64 3.34 9 3 C9 2.34 9 1.68 9 1 C6.03 1 3.06 1 0 1 C0 0.67 0 0.34 0 0 Z " fill="#E99A73" transform="translate(29,7)"/>
<path d="M0 0 C0.89847656 0.00257812 1.79695313 0.00515625 2.72265625 0.0078125 C3.61855469 0.00523438 4.51445313 0.00265625 5.4375 0 C7.78515625 0.1328125 7.78515625 0.1328125 9.78515625 1.1328125 C9.78515625 1.7928125 9.78515625 2.4528125 9.78515625 3.1328125 C8.79515625 3.6278125 8.79515625 3.6278125 7.78515625 4.1328125 C8.44515625 4.1328125 9.10515625 4.1328125 9.78515625 4.1328125 C9.45515625 5.4528125 9.12515625 6.7728125 8.78515625 8.1328125 C7.46515625 7.8028125 6.14515625 7.4728125 4.78515625 7.1328125 C4.45515625 8.1228125 4.12515625 9.1128125 3.78515625 10.1328125 C5.10515625 9.4728125 6.42515625 8.8128125 7.78515625 8.1328125 C9.78515625 10.1328125 9.78515625 10.1328125 10.22265625 13.2578125 C9.57706362 18.97591861 6.8198879 23.09808085 2.78515625 27.1328125 C-2.70339613 27.1328125 -5.91647618 25.51100587 -9.8359375 21.8984375 C-11.97502316 19.1594383 -12.14697937 16.52603126 -12.21484375 13.1328125 C-9.29719375 11.1877125 -7.5894709 10.68004933 -4.21484375 10.1328125 C-4.54484375 9.4728125 -4.87484375 8.8128125 -5.21484375 8.1328125 C-4.22484375 8.1328125 -3.23484375 8.1328125 -2.21484375 8.1328125 C-3.20484375 7.1428125 -4.19484375 6.1528125 -5.21484375 5.1328125 C-4.55484375 4.8028125 -3.89484375 4.4728125 -3.21484375 4.1328125 C-3.21484375 3.1428125 -3.21484375 2.1528125 -3.21484375 1.1328125 C-2.21484375 0.1328125 -2.21484375 0.1328125 0 0 Z " fill="#F8CDB7" transform="translate(38.21484375,18.8671875)"/>
<path d="M0 0 C0 3.10551666 -0.5393715 4.35261084 -2 7 C-0.68 7.33 0.64 7.66 2 8 C2.08133791 9.91595968 2.13934367 11.83291932 2.1875 13.75 C2.22230469 14.81734375 2.25710937 15.8846875 2.29296875 16.984375 C1.97082786 20.30027855 1.22851086 21.59016673 -1 24 C-1.99 23.34 -2.98 22.68 -4 22 C-4 22.99 -4 23.98 -4 25 C-5.32 24.67 -6.64 24.34 -8 24 C-8.103125 22.906875 -8.20625 21.81375 -8.3125 20.6875 C-8.97307727 17.14440371 -9.2027092 16.06756277 -12 14 C-11.34 13.67 -10.68 13.34 -10 13 C-10.0825 11.948125 -10.165 10.89625 -10.25 9.8125 C-9.95892025 5.37353377 -9.28740903 3.94136598 -6 1 C-2.75 0.1875 -2.75 0.1875 0 0 Z " fill="#AF5F56" transform="translate(24,24)"/>
<path d="M0 0 C0.33 0.99 0.66 1.98 1 3 C3.475 3.495 3.475 3.495 6 4 C5.85691406 5.04800781 5.85691406 5.04800781 5.7109375 6.1171875 C5.54464844 7.48230469 5.54464844 7.48230469 5.375 8.875 C5.25898437 9.77992187 5.14296875 10.68484375 5.0234375 11.6171875 C5.01570313 12.40351562 5.00796875 13.18984375 5 14 C5.66 14.66 6.32 15.32 7 16 C6.34 16.66 5.68 17.32 5 18 C1.375 17.625 1.375 17.625 -2 17 C-2 17.66 -2 18.32 -2 19 C-3.32 18.67 -4.64 18.34 -6 18 C-6 18.66 -6 19.32 -6 20 C-4.02 20.33 -2.04 20.66 0 21 C0 21.33 0 21.66 0 22 C-3.3 22 -6.6 22 -10 22 C-10 20.68 -10 19.36 -10 18 C-10.94875 18.04125 -11.8975 18.0825 -12.875 18.125 C-16 18 -16 18 -18 16 C-16.4375 14.9375 -16.4375 14.9375 -14 14 C-12.2675 14.3403125 -12.2675 14.3403125 -10.5 14.6875 C-8.7675 14.8421875 -8.7675 14.8421875 -7 15 C-4.5633326 12.89177071 -4.5633326 12.89177071 -3 10 C-2.608125 9.360625 -2.21625 8.72125 -1.8125 8.0625 C-0.7702562 5.4168042 -0.38309969 2.80939772 0 0 Z " fill="#C68364" transform="translate(48,30)"/>
<path d="M0 0 C5.78706199 5.48247978 5.78706199 5.48247978 7 9 C6.67 9.66 6.34 10.32 6 11 C8.97 11.495 8.97 11.495 12 12 C12.33 13.65 12.66 15.3 13 17 C9.52026527 18.73986737 5.72574998 17.70995561 2 17 C-0.45673727 16.15577574 -2.65954062 15.14533119 -5 14 C-4.67 13.34 -4.34 12.68 -4 12 C-3.34 12 -2.68 12 -2 12 C-1.34 8.04 -0.68 4.08 0 0 Z " fill="#E27BB5" transform="translate(26,36)"/>
<path d="M0 0 C0 1.32 0 2.64 0 4 C-3.75 6 -3.75 6 -6 6 C-5.34099246 9.07536854 -4.46132217 11.07735566 -3 14 C-7.62 14 -12.24 14 -17 14 C-15.83657588 7.62412963 -15.83657588 7.62412963 -12.03125 4.78515625 C-10.8659375 4.21667969 -9.700625 3.64820313 -8.5 3.0625 C-6.75203125 2.18271484 -6.75203125 2.18271484 -4.96875 1.28515625 C-2 0 -2 0 0 0 Z " fill="#F79CCB" transform="translate(21,50)"/>
<path d="M0 0 C-0.89601468 6.62579277 -1.6916975 11.77781515 -6 17 C-6.474375 17.639375 -6.94875 18.27875 -7.4375 18.9375 C-9 20 -9 20 -11.6875 19.6875 C-12.450625 19.460625 -13.21375 19.23375 -14 19 C-14.33 18.01 -14.66 17.02 -15 16 C-14.3915625 15.77054688 -13.783125 15.54109375 -13.15625 15.3046875 C-10.3834672 13.62695298 -9.79234128 12.06769603 -8.5 9.125 C-4.21441474 0 -4.21441474 0 0 0 Z " fill="#EBB57B" transform="translate(35,12)"/>
<path d="M0 0 C0.45375 0.66 0.9075 1.32 1.375 2 C1.91125 2.66 2.4475 3.32 3 4 C3.66 4 4.32 4 5 4 C5 4.99 5 5.98 5 7 C3.68 7 2.36 7 1 7 C1 7.66 1 8.32 1 9 C-0.32 8.67 -1.64 8.34 -3 8 C-3 8.66 -3 9.32 -3 10 C-0.03 10.495 -0.03 10.495 3 11 C3 11.33 3 11.66 3 12 C-0.3 12 -3.6 12 -7 12 C-7 10.68 -7 9.36 -7 8 C-7.94875 8.04125 -8.8975 8.0825 -9.875 8.125 C-13 8 -13 8 -15 6 C-13.4375 4.9375 -13.4375 4.9375 -11 4 C-9.2675 4.3403125 -9.2675 4.3403125 -7.5 4.6875 C-6.345 4.790625 -5.19 4.89375 -4 5 C-1.50789479 2.69931981 -1.50789479 2.69931981 0 0 Z " fill="#962F66" transform="translate(45,40)"/>
<path d="M0 0 C2.4375 0.25 2.4375 0.25 5 1 C7.49118953 4.7367843 7.2065226 6.74451819 7.125 11.1875 C7.10695313 12.45980469 7.08890625 13.73210938 7.0703125 15.04296875 C7.03550781 16.50669922 7.03550781 16.50669922 7 18 C5.0625 17.6875 5.0625 17.6875 3 17 C1.72334639 13.17003917 1.62939106 9.50918011 1.37890625 5.49609375 C1.22678887 2.83147214 1.22678887 2.83147214 -1 1 C-0.67 0.67 -0.34 0.34 0 0 Z " fill="#F5D098" transform="translate(47,13)"/>
<path d="M0 0 C4.58031088 0.52849741 4.58031088 0.52849741 7 2 C8.82955623 5.1845878 9.95660715 8.4874601 11 12 C8.03 12 5.06 12 2 12 C1.67 10.68 1.34 9.36 1 8 C1.66 7.01 2.32 6.02 3 5 C1.68 3.68 0.36 2.36 -1 1 C-0.67 0.67 -0.34 0.34 0 0 Z " fill="#C25998" transform="translate(48,52)"/>
<path d="M0 0 C0.99 0.33 1.98 0.66 3 1 C3.06058594 1.75925781 3.12117188 2.51851562 3.18359375 3.30078125 C3.26738281 4.29464844 3.35117187 5.28851563 3.4375 6.3125 C3.51871094 7.29863281 3.59992187 8.28476562 3.68359375 9.30078125 C3.91812559 12.09375599 3.91812559 12.09375599 5 15 C5.99 15.33 6.98 15.66 8 16 C8.33 15.34 8.66 14.68 9 14 C9.33 14.99 9.66 15.98 10 17 C8.1875 18.0625 8.1875 18.0625 6 19 C2.26360784 17.75453595 1.81243487 16.36595047 0 13 C-1.32 13.33 -2.64 13.66 -4 14 C-3.67 12.68 -3.34 11.36 -3 10 C-1.02 10.495 -1.02 10.495 1 11 C1.33 10.01 1.66 9.02 2 8 C0.35 8.33 -1.3 8.66 -3 9 C-2.67 8.34 -2.34 7.68 -2 7 C-0.68 7 0.64 7 2 7 C2 6.34 2 5.68 2 5 C1.01 4.67 0.02 4.34 -1 4 C-0.67 2.68 -0.34 1.36 0 0 Z " fill="#712734" transform="translate(46,15)"/>
<path d="M0 0 C0.66 1.32 1.32 2.64 2 4 C2.66 3.67 3.32 3.34 4 3 C4.33 4.98 4.66 6.96 5 9 C4.01 9.33 3.02 9.66 2 10 C1.01 11.485 1.01 11.485 0 13 C-0.66 13 -1.32 13 -2 13 C-2 11.68 -2 10.36 -2 9 C-3.32 8.67 -4.64 8.34 -6 8 C-5.195625 7.236875 -4.39125 6.47375 -3.5625 5.6875 C-0.83200976 3.20569102 -0.83200976 3.20569102 0 0 Z " fill="#E0AD78" transform="translate(18,31)"/>
<path d="M0 0 C-1.435938 5.22159274 -3.77578306 9.670042 -7 14 C-7.99 14.495 -7.99 14.495 -9 15 C-8.78357532 8.83189657 -7.62184578 5.81716686 -3.47265625 1.25 C-2 0 -2 0 0 0 Z " fill="#FEF2CA" transform="translate(35,12)"/>
<path d="M0 0 C8.10635405 -0.68184286 13.28027447 0.35426383 20 5 C17.35261084 6.4606285 16.10551666 7 13 7 C12.67 6.34 12.34 5.68 12 5 C9.67843403 4.59270772 7.3431213 4.25561323 5 4 C6.32 3.67 7.64 3.34 9 3 C9 2.34 9 1.68 9 1 C6.03 1 3.06 1 0 1 C0 0.67 0 0.34 0 0 Z " fill="#914839" transform="translate(29,7)"/>
<path d="M0 0 C0.33 0 0.66 0 1 0 C1.4726477 8.19256018 1.4726477 8.19256018 -0.5 11.5625 C-0.995 12.036875 -1.49 12.51125 -2 13 C-2.99 12.34 -3.98 11.68 -5 11 C-5 11.99 -5 12.98 -5 14 C-6.32 13.67 -7.64 13.34 -9 13 C-9.33 10.69 -9.66 8.38 -10 6 C-7.525 7.485 -7.525 7.485 -5 9 C-4.67 8.34 -4.34 7.68 -4 7 C-3.01 7.33 -2.02 7.66 -1 8 C-0.67 5.36 -0.34 2.72 0 0 Z " fill="#9A543F" transform="translate(25,35)"/>
<path d="M0 0 C0 0.33 0 0.66 0 1 C-1.0725 1.2475 -2.145 1.495 -3.25 1.75 C-6.99649437 2.99883146 -8.52073882 4.02488658 -11 7 C-11.66 6.67 -12.32 6.34 -13 6 C-12.34 5.01 -11.68 4.02 -11 3 C-11.99 3.33 -12.98 3.66 -14 4 C-14.33 4.99 -14.66 5.98 -15 7 C-15.99 7 -16.98 7 -18 7 C-17.04908327 4.49303771 -16.06198622 3.05598755 -14.0625 1.25 C-9.44046014 -0.63654688 -4.92876009 -0.23305871 0 0 Z " fill="#C3805B" transform="translate(38,8)"/>
<path d="M0 0 C1.48828125 1.05078125 1.48828125 1.05078125 3 3 C3.29296875 6.35546875 3.29296875 6.35546875 3.1875 10.1875 C3.16042969 11.45980469 3.13335937 12.73210938 3.10546875 14.04296875 C3.07066406 15.01878906 3.03585938 15.99460937 3 17 C1.68 16.67 0.36 16.34 -1 16 C-1.33 13.03 -1.66 10.06 -2 7 C-1.67 7 -1.34 7 -1 7 C-1 8.65 -1 10.3 -1 12 C-0.34 12 0.32 12 1 12 C1.19814261 5.91591528 1.19814261 5.91591528 0 0 Z " fill="#C5855F" transform="translate(51,14)"/>
<path d="M0 0 C3 3.625 3 3.625 3 7 C3.33 7.66 3.66 8.32 4 9 C3.01 9 2.02 9 1 9 C1.33 9.66 1.66 10.32 2 11 C-0.97 11.66 -3.94 12.32 -7 13 C-6.57847656 12.39671875 -6.15695313 11.7934375 -5.72265625 11.171875 C-5.17480469 10.37265625 -4.62695312 9.5734375 -4.0625 8.75 C-3.51722656 7.96109375 -2.97195312 7.1721875 -2.41015625 6.359375 C-1.10377559 4.17363007 -0.45019489 2.4846199 0 0 Z " fill="#773143" transform="translate(33,19)"/>
<path d="M0 0 C0.45375 0.66 0.9075 1.32 1.375 2 C1.91125 2.66 2.4475 3.32 3 4 C3.66 4 4.32 4 5 4 C5 4.99 5 5.98 5 7 C3.68 7 2.36 7 1 7 C1 7.66 1 8.32 1 9 C-0.65 8.67 -2.3 8.34 -4 8 C-3.40072174 4.64404172 -2.15377564 2.62198774 0 0 Z " fill="#A25B45" transform="translate(45,40)"/>
<path d="M0 0 C5.51796407 5.22754491 5.51796407 5.22754491 7 9 C7 9.33 7 9.66 7 10 C4.69 9.67 2.38 9.34 0 9 C0 6.03 0 3.06 0 0 Z " fill="#E67A72" transform="translate(26,36)"/>
<path d="M0 0 C0.99 1.32 1.98 2.64 3 4 C3.66 3.34 4.32 2.68 5 2 C4.25 6.75 4.25 6.75 2 9 C0.35 9.33 -1.3 9.66 -3 10 C-2.01 6.7 -1.02 3.4 0 0 Z " fill="#B67150" transform="translate(19,15)"/>
<path d="M0 0 C0.99 0.33 1.98 0.66 3 1 C3.33 2.65 3.66 4.3 4 6 C2.35 7.32 0.7 8.64 -1 10 C-2.25 3.375 -2.25 3.375 0 0 Z " fill="#BF805C" transform="translate(16,27)"/>
<path d="M0 0 C2.31 0 4.62 0 7 0 C7.33 1.65 7.66 3.3 8 5 C7.34 5 6.68 5 6 5 C6 4.34 6 3.68 6 3 C4.02 3.99 2.04 4.98 0 6 C0 4.02 0 2.04 0 0 Z " fill="#F2C081" transform="translate(34,11)"/>
<path d="M0 0 C1.25541557 3.76624671 0.37061958 5.37188934 -1 9 C-2.98 9.33 -4.96 9.66 -7 10 C-7.33 9.34 -7.66 8.68 -8 8 C-7.236875 7.79375 -6.47375 7.5875 -5.6875 7.375 C-2.17770897 5.57929296 -1.47400219 3.56863688 0 0 Z " fill="#F3C88A" transform="translate(25,16)"/>
<path d="M0 0 C0.99 0.33 1.98 0.66 3 1 C3 3.31 3 5.62 3 8 C1.02 8.33 -0.96 8.66 -3 9 C-2.67 8.34 -2.34 7.68 -2 7 C-0.68 7 0.64 7 2 7 C2 6.34 2 5.68 2 5 C1.01 4.67 0.02 4.34 -1 4 C-0.67 2.68 -0.34 1.36 0 0 Z " fill="#89393F" transform="translate(46,15)"/>
<path d="M0 0 C0.99 0 1.98 0 3 0 C1.50163895 3.11198065 -0.19933758 6.0534615 -2 9 C-4 6 -4 6 -4 4 C-3.01 4 -2.02 4 -1 4 C-0.67 2.68 -0.34 1.36 0 0 Z " fill="#F6CD8E" transform="translate(24,11)"/>
<path d="M0 0 C0 0.66 0 1.32 0 2 C-7.28571429 6.57142857 -7.28571429 6.57142857 -12 6 C-8.59780735 3.25207517 -4.51535412 0 0 0 Z " fill="#A54282" transform="translate(21,50)"/>
<path d="M0 0 C0.99 0 1.98 0 3 0 C3 0.66 3 1.32 3 2 C3.66 2 4.32 2 5 2 C5 2.66 5 3.32 5 4 C2.36 4.33 -0.28 4.66 -3 5 C-1.125 1.125 -1.125 1.125 0 0 Z " fill="#9E5744" transform="translate(37,14)"/>
<path d="M0 0 C1.32 0.66 2.64 1.32 4 2 C3.34 3.65 2.68 5.3 2 7 C0.68 6.67 -0.64 6.34 -2 6 C-1.34 4.02 -0.68 2.04 0 0 Z " fill="#FCADD0" transform="translate(8,57)"/>
<path d="M0 0 C0 3 0 3 -2 5.1875 C-2.66 5.785625 -3.32 6.38375 -4 7 C-4.99 5.68 -5.98 4.36 -7 3 C-6.67 2.34 -6.34 1.68 -6 1 C-2.9375 0.375 -2.9375 0.375 0 0 Z " fill="#8F4637" transform="translate(24,24)"/>
<path d="M0 0 C0.66 0.66 1.32 1.32 2 2 C2.99 1.67 3.98 1.34 5 1 C4.67 2.65 4.34 4.3 4 6 C2.35 6 0.7 6 -1 6 C-0.67 4.02 -0.34 2.04 0 0 Z " fill="#C4815F" transform="translate(20,38)"/>
<path d="M0 0 C0.33 0 0.66 0 1 0 C1.4726477 8.19256018 1.4726477 8.19256018 -0.5 11.5625 C-0.995 12.036875 -1.49 12.51125 -2 13 C-2.33 11.35 -2.66 9.7 -3 8 C-2.34 8 -1.68 8 -1 8 C-0.67 5.36 -0.34 2.72 0 0 Z " fill="#8C2E56" transform="translate(25,35)"/>
<path d="M0 0 C-0.66 1.98 -1.32 3.96 -2 6 C-2.99 6 -3.98 6 -5 6 C-5.99 6.495 -5.99 6.495 -7 7 C-3.86206897 0 -3.86206897 0 0 0 Z " fill="#FFE4A3" transform="translate(35,12)"/>
<path d="M0 0 C0.66 0.33 1.32 0.66 2 1 C1.34 2.32 0.68 3.64 0 5 C0.66 5.33 1.32 5.66 2 6 C0.35 6.66 -1.3 7.32 -3 8 C-1.125 1.125 -1.125 1.125 0 0 Z " fill="#AE4E8B" transform="translate(7,56)"/>
<path d="M0 0 C1.2077558 3.62326739 0.54311128 4.64146369 -1 8 C-1.99 8 -2.98 8 -4 8 C-3.40072174 4.64404172 -2.15377564 2.62198774 0 0 Z " fill="#99424E" transform="translate(45,40)"/>
<path d="M0 0 C2.475 0.99 2.475 0.99 5 2 C2.35261084 3.4606285 1.10551666 4 -2 4 C-2 3.34 -2 2.68 -2 2 C-1.34 2 -0.68 2 0 2 C0 1.34 0 0.68 0 0 Z " fill="#8B4135" transform="translate(44,10)"/>
</svg>
